<svg viewBox="0 0 47 22" xmlns="http://www.w3.org/2000/svg">
    <path d="M5.202 12.935c0 .127-.374.398-.742.567-.797.362-2.197.845-2.306.887-.169.066-.235.169-.205.302.17.59 1.292 1.865 2.456 2.112.084 0 .163-.091.23-.133.216.024.415.573-.26.573-.918 0-2.554-1.503-2.892-2.565-.368.827-.785 1.708-1.032 2.263-.15.344-.006.555-.036.598-.344.024-.525-.175-.344-.567.447-.966 1.793-3.766 1.847-4.931a.322.322 0 0 1 .272-.187c.091 0 .235.344.078.948-.066.247-.296.785-.573 1.418.966-.314 2.686-1.104 3.193-1.461.187-.006.314.09.314.175ZM6.422 14.136c.066 0 .127.09.163.217.332.006.923.302 1.135.465.26.187.471.483.416.736-.06.253-1.038 1.26-1.467 1.599-.278.21-.585.278-.845.205-.585-.17-.543-.797-.465-1.16.084-.446.525-1.02.525-1.846-.012-.175.386-.217.537-.217h.001Zm.102.718c-.235.38-.99 1.4-.712 2.1.11.278.471.036.754-.187.163-.133.78-.676 1.008-1.16.121-.26.024-.59-.332-.723-.157.018-.5.054-.718-.03Zm.254-1.466c-.103.109-.175-.024-.272-.127.066-.46.278-.972.253-1.436.036-.091.163-.23.296-.23.133 0 .193.248.23.526-.297.555-.327.929-.508 1.267h.001Zm1.183-.248c-.103.109-.235.066-.314.018.145-.525.23-.61.29-1.141.084-.175.193-.398.29-.398.133 0 .32.175.356.459-.278.368-.44.724-.622 1.062ZM10.164 14.154c.042.006.091.217.078.296-.013.079-.024 0-.09.078-.212.489-.846 1.968-.737 2.149.38-.398 1.243-1.708 2.18-2.324a.84.84 0 0 1 .29-.091c.32-.066.415.356.192.863-.024.06-.127.084-.09.163-.079.344-.345.948-.333 1.394.006.193.078.272.253.193.652-.29 1.672-1.22 2.221-1.835.048.018.133.145.078.21-.64.786-1.666 1.69-2.263 1.98-.5.236-.797.037-.809-.313-.006-.121.06-.078.048-.163-.09-.356.386-1.273.501-1.92.018-.12-.066-.083-.187-.005-.887.555-1.515 1.684-2.004 2.475-.048.084-.47.133-.5-.06-.104-.048-.128-.386-.079-.616.163-.712.543-1.793.893-2.45a1.01 1.01 0 0 1 .356-.024h.002Z"/>
    <path d="M14.304 14.172c.048.06-.024.127.024.163.121.084.163.229.145.429.018.362-.5 1.249-.676 1.919-.084.314-.042.507.193.447.76-.356 1.877-1.261 2.45-1.895.11-.036.163.09.036.254-.507.628-2.19 1.986-2.553 1.992-.302.145-.61-.103-.543-.398-.133-.501.797-2.414.573-2.861.127-.115.296-.11.35-.048l.001-.002Zm.253-1.883c.006-.163.49-.217.573-.23.06.06.121.122.121.176 0 .054-.048.422-.163.44-.235.043-.543-.162-.53-.385v-.001Z"/>
    <path d="M22.446 14.408c0 .084-.193.145-.254.145-.06 0-.145-.066-.193-.066-.272 0-.404.278-.404.489 0 .398.567 1.37.567 1.986 0 .302-.404.459-.7.513-.042.006-.084-.042-.12-.036-.038.006-.06.042-.11.042-.247 0-.88-.187-1.189-.501-.15-.151-.356-.416-.109-.573.254.338.767.7 1.273.7.205 0 .447-.103.447-.211 0-.398-.338-1.207-.483-1.75-.543.404-1.388.785-2.263 1.219-.127 1.328-1.316 4.2-2.022 4.738-.084.06-.006.036-.103.12-.133.128-.386.176-.53.176-.46 0-1.02-.32-1.02-1.503 0-1.823 1.604-2.825 3.246-3.64-.024-.615-.21-1.14-.44-.838-.423.543-.967 1.056-1.093 1.14-.084.38-.555.725-.724.725-.29 0-.356-.362-.21-.803.252-1.304 1.454-3.23 1.918-2.891.483-.103.585.217.585.429 0 .296-.12.634-.59.64.035-.078.132-.628.083-.61-.785.344-1.328 1.587-1.587 2.306-.06.169-.042.447.175.127.501-.362 1.4-1.738 1.545-1.738.573 0 .76.567.78 1.286.82-.398 1.617-.767 2.184-1.195 0-.042 0-.084.006-.127s.048-.103.048-.121c0-.018-.036-.066-.024-.11.042-.216.235-.766.513-.766.235.006.797.622.797.7l.001-.002Zm-3.97 2.185c-1.504.76-2.952 1.732-2.952 3.326 0 .59.247.954.49 1.104a1.2 1.2 0 0 0 .29.036c.874 0 2.063-3.181 2.172-4.466ZM23.991 14.999c-.024-.253.127-.954.416-.954.048 0 .205.127.29.374.048.024.078.042.018.187s-.278.489-.296.85c0 .06-.066-.017-.078.049a5.34 5.34 0 0 0-.217 1.31c-.006.127.066.084.121.024a8.937 8.937 0 0 0 1.25-2.07c-.019-.151.077-.211.162-.211s.235.09.253.21c.048.037.133.104.127.122a.466.466 0 0 0-.06.254c.048.404.217 1.225.555 1.52.11.104.175.152.272-.035.374-.754.29-1.684.253-2.426a.142.142 0 0 1 .127-.127c.078 0 .29.066.296.26.018.694-.042 1.895-.404 2.583-.145.084-.169.26-.38.21-.447-.108-.845-.892-.996-1.598-.036-.17-.09-.127-.15-.036-.279.44-.882 1.479-1.184 1.925-.048.078-.175-.048-.253-.036-.193.127-.29-.078-.302-.187-.084-.471.042-1.412.29-2.07-.048-.036-.103-.042-.109-.127v-.001ZM29.23 14.172c.048.06-.024.127.024.163.121.084.163.229.145.429.018.362-.5 1.249-.676 1.919-.084.314-.042.507.193.447.76-.356 1.877-1.261 2.45-1.895.11-.036.163.09.036.254-.507.628-2.185 1.986-2.553 1.992-.302.145-.61-.103-.543-.398-.133-.501.797-2.414.573-2.861.127-.115.302-.11.35-.048l.001-.002Zm.253-1.883c.006-.163.49-.217.573-.23.06.06.121.122.121.176 0 .054-.048.422-.163.44-.235.043-.537-.162-.53-.385v-.001Z"/>
    <path d="M33.793 17.383c.254-.006.55-.066.954-.362.11.036.11.12.078.15-.386.32-.767.55-1.135.556-.09 0-.459-.127-.555-.404-.26-.374-.06-1.545.036-2.034-.374.374-.724.7-1.056 1.304-.048.338-.145.253-.26.362-.036.036-.404.187-.416.187-.066 0-.21-.066-.247-.17-.018-.06-.103-.216-.084-.331.193-1.092.374-1.587.67-2.39a.287.287 0 0 1 .211-.103c.078 0 .332.09.32.217-.024.296-.15.7-.398.948-.145.362-.21.682-.296 1.056-.024.127.084.169.133.109.652-.78 1.654-2.052 1.762-2.052.108 0 .247.042.296.103.091.12.036.459-.066.628-.266.579-.477 2.16.054 2.227v-.001ZM37.891 12.205c-.247.465-.923 1.274-1.243 1.527-.398.61-.85 2.004-.942 2.402-.09.398-.036.634.084.652.634-.55 1.346-1.78 2.77-2.692.217.018.43.187.46.296a.284.284 0 0 1-.128.32c-.453.682-1.316 1.243-1.316 1.563 0 .145.398.893 1.074.85.736-.12 1.503-.935 1.545-1.05.066-.29.296-.06.151.152-.344.513-1.159 1.147-1.793 1.219-.634.072-1.545-.7-1.69-1.461-.338.429-.555.809-.85 1.165-.176.21-.526.169-.677.036 0-.151-.048-.151-.06-.23-.06-1.091 1.032-3.488 2.18-5.371.391-.11.59.314.434.622h.001Zm-.797 3.488c.078.036.127.127.254.042.145-.091.682-.652.81-.87.06-.102.017-.168-.11-.065a8.368 8.368 0 0 0-.954.893Z"/>
    <path d="M40.963 17.112c1.014-.066 2.728-1.461 3.048-1.943a.116.116 0 0 1 .121-.042c.048.018.121.084.103.145-.018.06-.175.193-.278.314-.416.573-2.064 1.774-2.704 1.835a1.867 1.867 0 0 1-.32.042c-.507 0-.67-.525-.67-1.092 0-1.316.567-1.75.87-2.263.108-.018.337-.024.421.084.254.036.61.53.67.634.06.103.356.229.356.416 0 .127-.235.193-.32.217-.085.024-.302-.084-.459-.06-.314 0-.767-.006-1.032-.024a2.722 2.722 0 0 0-.145.827c0 .392.103.929.338.91h.001Zm1.092-1.968c-.169-.163-.374-.676-.61-.676-.127 0-.362.247-.549.616.398-.006.905.12.99.103.097-.018.211-.012.17-.042v-.001Z"/>
    <path d="M44.44 15.192c-.128.507-.212.996-.212 1.37 0 .447.133.779.591.64.32-.091.567-.314.742-.501.042 0 .091.036.084.12-.024.236-.567.755-1.092.755-.44 0-.724-.386-.7-1.008 0-.084.036-.036.036-.066 0-.03-.048-.078-.042-.121.205-1.461 1.008-3.971 1.654-4.985.042-.29.211-.332.302-.332s.26.32.26.634c0 .15-.042.682-.26 1.117-.157.598-.718 1.503-1.364 2.378v-.001Zm.168-.621c.416-.694.863-1.611 1.062-2.481.024-.11-.024-.121-.133.066-.18.29-.61 1.34-.929 2.414ZM13.725 9.634V7.003h1.865v.495h-1.304v.555h1.274v.495h-1.274v1.086h-.56zM18.656 9.634V7.003h1.865v.495h-1.304v.555h1.273v.495h-1.273v.598h1.304v.495h-1.865zM25.645 9.634l-.459-1.805-.459 1.805h-.598l-.754-2.631h.628l.46 1.9.5-1.9h.435l.495 1.9.46-1.9h.633l-.748 2.63h-.59zM29.731 8.324c0-.791.58-1.358 1.37-1.358.791 0 1.376.567 1.376 1.358 0 .79-.579 1.364-1.376 1.364-.797-.006-1.37-.573-1.37-1.364Zm2.173 0c0-.495-.314-.863-.803-.863-.483 0-.797.368-.797.863s.314.863.797.863c.483 0 .803-.374.803-.863ZM8.383 4.22c-3.645-5.752-12.337.5 1.135 5.583.356.754 1.563.465.917-.326-1.183-1.45 2.74-4.37 3.597-5.824 1.485-2.505-3.138-7.062-5.649.567Zm4.817-.314c-.815 1.853-4.026 3.923-3.808 5.522-10.816-4.183-4.436-9.675-1.26-4.702-.713 2.034.802 2.04.868 1.388.097-1.83.58-2.94 1.117-3.627 1.732-2.21 3.766-.14 3.084 1.418Z"/>
</svg>
