<svg viewBox="0 0 160 52" xmlns="http://www.w3.org/2000/svg" xmlns:xlink="http://www.w3.org/1999/xlink"><defs><path id="a" d="M0 0h28.839v49.995H0z"/></defs><g fill="none" fill-rule="evenodd"><path fill="#727376" fill-rule="nonzero" d="M64.712 20.647v1.138h-3.006v1.819h2.729v1.127h-2.729v2.799h-1.364v-6.883zM73.746 24.504v1.889h3.283v1.137h-4.648v-6.883h4.579v1.138h-3.214v1.611h2.808v1.108zM87.167 27.53h-1.513l-1.582-6.883h1.355l1.038 4.836h.118l1.236-4.836h1.167l1.256 4.836h.119l1.038-4.836h1.315l-1.572 6.883h-1.533l-1.196-4.44h-.099zM103.115 27.629c-.628 0-1.182-.129-1.662-.386-.482-.257-.86-.648-1.137-1.177-.272-.534-.405-1.191-.405-1.977 0-.791.133-1.449.405-1.978.277-.527.655-.92 1.137-1.177.48-.257 1.034-.385 1.662-.385.632 0 1.189.128 1.67.385.48.257.856.65 1.128 1.177.27.529.405 1.187.405 1.978 0 .786-.136 1.443-.405 1.977-.272.53-.648.92-1.127 1.177-.482.257-1.039.386-1.671.386Zm0-1.177c.585 0 1.03-.188 1.334-.564.31-.376.465-.974.465-1.8 0-.822-.155-1.423-.465-1.799-.304-.376-.749-.564-1.334-.564-.589 0-1.036.188-1.345.564-.304.376-.455.977-.455 1.8 0 .825.15 1.423.455 1.8.309.375.756.563 1.345.563Z"/><path d="M47.872 32.11c1.43 0 2.683.247 3.758.741 1.073.495 1.968 1.162 2.68 1.998a8.564 8.564 0 0 1 1.612 2.818 9.905 9.905 0 0 1 .534 3.223 9.893 9.893 0 0 1-.534 3.224 8.515 8.515 0 0 1-1.612 2.818c-.712.838-1.607 1.508-2.68 2.008-1.075.494-2.329.741-3.758.741-1.47 0-2.758-.247-3.866-.741-1.102-.5-2.017-1.17-2.749-2.008a8.574 8.574 0 0 1-1.651-2.818 9.71 9.71 0 0 1-.544-3.224c0-1.107.18-2.18.544-3.223.368-1.04.92-1.98 1.651-2.818.732-.836 1.647-1.503 2.75-1.998 1.107-.494 2.395-.741 3.865-.741Zm0 14.644c1.034 0 1.929-.21 2.68-.633a5.004 5.004 0 0 0 1.79-1.69 6.331 6.331 0 0 0 .9-2.295 6.6 6.6 0 0 0 0-2.491 6.348 6.348 0 0 0-.9-2.295 4.957 4.957 0 0 0-1.79-1.68c-.751-.42-1.646-.633-2.68-.633-1.095 0-2.034.212-2.818.632-.778.423-1.399.984-1.859 1.681a6.337 6.337 0 0 0-.94 2.295 6.312 6.312 0 0 0 0 2.491 6.32 6.32 0 0 0 .94 2.294 5.14 5.14 0 0 0 1.86 1.691c.783.423 1.722.633 2.817.633ZM62.462 48.87c0 .166-.07.302-.208.406a.804.804 0 0 1-.504.158h-1.81c-.212 0-.383-.052-.514-.158a.5.5 0 0 1-.188-.406V32.91c0-.163.062-.299.188-.405a.802.802 0 0 1 .514-.158h2.106l7.901 6.595v-6.031c0-.164.064-.3.198-.406a.802.802 0 0 1 .514-.158h1.83c.197 0 .365.054.504.158a.492.492 0 0 1 .207.406v15.96c0 .165-.069.3-.207.405a.804.804 0 0 1-.505.158H70.66c-.212 0-.383-.052-.514-.158a.489.489 0 0 1-.198-.406v-6.1l-7.485-6.122V48.87ZM86.467 45.261h-6.783L78.319 48.9c-.08.126-.188.247-.326.366a.676.676 0 0 1-.435.168h-1.78c-.277 0-.482-.074-.613-.227-.127-.159-.149-.342-.07-.554l6.22-15.762c.084-.131.2-.252.346-.366.144-.119.282-.178.416-.178h2.393c.11 0 .242.044.395.128.158.08.252.159.287.238l5.854 15.96c.084.217.052.4-.099.543-.146.146-.341.218-.584.218h-1.829a.938.938 0 0 1-.405-.119c-.154-.084-.245-.168-.277-.247l-1.345-3.807Zm-5.686-2.858h4.668l-2.206-6.368-2.462 6.368ZM99.229 46.705c1.238 0 2.106-.396 2.6-1.187.495-.79.742-1.879.742-3.263v-9.344c0-.164.06-.3.178-.406.124-.104.292-.158.504-.158h1.929c.178 0 .33.054.464.158a.502.502 0 0 1 .198.406v9.275c0 1.76-.277 3.191-.83 4.291-.554 1.095-1.33 1.904-2.324 2.423-.989.522-2.144.781-3.461.781-1.174 0-2.242-.25-3.204-.751-.957-.507-1.72-1.31-2.294-2.413-.569-1.1-.85-2.522-.85-4.262v-9.344c0-.164.069-.3.207-.406a.817.817 0 0 1 .504-.158h1.88c.21 0 .38.054.513.158a.502.502 0 0 1 .198.406v9.344c0 .786.1 1.518.297 2.195.202.673.529 1.217.979 1.632.447.415 1.038.623 1.77.623Z" fill="#004AAD" fill-rule="nonzero"/><g transform="translate(9.374 1.157)"><mask id="b" fill="#fff"><use xlink:href="#a"/></mask><path d="M-15.713 43.578v4.052c0 1.048.853 1.9 1.898 1.9H-.403a7.046 7.046 0 0 0-.609-1.765c-.529-1.06-1.337-2.027-2.296-2.91h-7.73v-1.277a1.904 1.904 0 0 0-1.899-1.901h-.878a1.904 1.904 0 0 0-1.898 1.9ZM3.767.015H-.08v.512l7.938 4.58v.005l.003.003c9.094 1.903 15.992 10.022 15.992 19.658 0 8.528-5.404 15.865-12.952 18.76-.175 1.857-.9 3.64-1.93 5.296l-.107.168c11.194-2.366 19.663-12.353 19.663-24.224C28.527 11.157 17.386.015 3.767.015Z" fill="#004AAD" fill-rule="nonzero" mask="url(#b)"/></g><path d="M9.374 1.157h28.838v49.995H9.374z"/><path fill="#FF914D" fill-rule="nonzero" d="M4.797 41.059V2.224L8.196 3.8v40.139z"/><path fill="#2D549E" fill-rule="nonzero" d="M9.521 45.062V4.415l5.973 2.769-.017 42.923z"/><path fill="#00BF63" fill-rule="nonzero" d="M0 36.995V0l3.399 1.576v38.299z"/><path d="M43.527 17.333C62.266 6.748 91.5 3.02 110.647 14.81c10.202 6.281 11.859 14.465 27.07 14.65 8.181.099 15.56-3.196 22.283-7.486-2.599 3.227-5.546 4.979-9.406 6.688-15.183 6.722-24.173 3.137-35.666-6.164-19.012-15.386-48.409-12.565-68.482-.644a2.69 2.69 0 0 1-2.92-4.521Z" fill="#2D549E" fill-rule="nonzero"/><path d="M44.987 19.593c20.152-13.011 56.609-13.382 71.154 1.738 18.59 19.325 42.177 3.008 43.859.643"/></g></svg>
