<?xml version="1.0" standalone="no"?>
<!DOCTYPE svg PUBLIC "-//W3C//DTD SVG 20010904//EN"
 "http://www.w3.org/TR/2001/REC-SVG-20010904/DTD/svg10.dtd">
<svg version="1.0" xmlns="http://www.w3.org/2000/svg"
 width="700.000000pt" height="700.000000pt" viewBox="0 0 700.000000 700.000000"
 preserveAspectRatio="xMidYMid meet">
<metadata>
Created by potrace 1.14, written by Peter Selinger 2001-2017
</metadata>
<g transform="translate(0.000000,700.000000) scale(0.100000,-0.100000)"
fill="#000000" stroke="none">
<path d="M5470 6465 c-156 -26 -336 -91 -445 -160 -185 -116 -268 -181 -400
-313 -276 -275 -545 -683 -750 -1142 -26 -58 -56 -125 -67 -150 -28 -62 -92
-223 -134 -339 -20 -53 -39 -105 -44 -116 -4 -11 -21 -58 -36 -105 -15 -47
-31 -89 -34 -93 -4 -4 -34 34 -68 85 -65 99 -204 277 -287 367 -409 445 -865
716 -1390 827 -200 42 -520 51 -688 18 -12 -2 -38 -6 -59 -9 -61 -9 -180 -42
-266 -74 -382 -141 -659 -418 -756 -755 -35 -120 -41 -168 -40 -326 0 -150 17
-249 65 -400 44 -135 104 -262 214 -448 32 -54 154 -221 226 -307 134 -162
380 -400 586 -570 7 -5 20 -16 29 -24 9 -8 90 -69 180 -137 553 -415 1279
-818 2139 -1185 154 -66 289 -124 300 -129 34 -15 398 -157 430 -167 20 -6 42
-28 67 -65 92 -139 236 -214 386 -203 144 11 226 86 224 205 -1 71 -18 110
-106 240 -92 134 -119 209 -122 340 -5 164 34 307 140 521 61 121 144 257 250
404 99 138 348 443 457 560 21 22 46 50 57 62 26 31 200 219 297 322 44 46 91
96 105 111 14 15 89 94 166 176 78 82 154 163 169 179 15 17 64 70 109 119 44
49 95 105 111 125 17 19 46 54 66 76 71 79 195 242 247 322 88 139 139 260
173 414 31 137 33 374 5 524 -110 594 -563 1097 -1092 1210 -100 22 -315 27
-414 10z m253 -900 c256 -74 467 -256 596 -512 31 -63 75 -183 86 -238 3 -16
8 -41 11 -55 13 -65 11 -261 -2 -334 -16 -83 -61 -213 -97 -282 -12 -23 -35
-66 -50 -95 -58 -109 -267 -410 -344 -494 -10 -11 -45 -53 -78 -94 -32 -40
-71 -86 -85 -101 -14 -15 -47 -53 -75 -85 -27 -33 -59 -68 -70 -80 -11 -11
-67 -72 -125 -134 -58 -62 -122 -132 -144 -155 -81 -87 -272 -290 -291 -310
-161 -169 -398 -445 -524 -611 -33 -44 -64 -84 -69 -90 -10 -13 -92 -138 -127
-195 -48 -77 -121 -231 -148 -315 -36 -111 -48 -180 -49 -280 -1 -47 -4 -85
-7 -85 -7 0 -266 102 -316 125 -16 7 -75 32 -130 55 -276 117 -774 354 -950
454 -33 19 -85 48 -117 64 -194 105 -533 320 -733 465 -671 487 -1092 1009
-1209 1497 -26 111 -28 122 -31 255 -5 234 54 417 190 586 285 354 819 459
1362 268 431 -152 867 -519 1176 -991 l37 -57 -34 -113 c-18 -62 -42 -153 -51
-203 -23 -111 -26 -326 -6 -405 46 -185 160 -297 309 -304 153 -8 270 84 287
224 2 25 7 80 10 122 6 104 14 196 20 238 3 19 7 53 10 75 8 70 17 139 21 160
6 27 12 62 18 105 27 178 142 605 196 725 4 11 31 72 59 135 191 440 476 786
797 970 210 120 467 157 677 95z"/>
</g>
</svg>
