<?xml version="1.0" encoding="UTF-8"?>
<svg width="47px" height="22px" viewBox="0 0 47 22" version="1.1" xmlns="http://www.w3.org/2000/svg" xmlns:xlink="http://www.w3.org/1999/xlink">
    <title>logo</title>
    <g id="Page-1" stroke="none" stroke-width="1" fill="none" fill-rule="evenodd">
        <g id="logo" transform="translate(-0, 0)" fill="#000000" fill-rule="nonzero">
            <path d="M5.20235752,12.9346731 C5.20235752,13.0616731 4.82835752,13.3326731 4.46035752,13.5016731 C3.66335752,13.8636731 2.26335752,14.3466731 2.15435752,14.3886731 C1.98535752,14.4546731 1.91935752,14.5576731 1.94935752,14.6906731 C2.11835752,15.2816731 3.24135752,16.5556731 4.40535752,16.8026731 C4.48935752,16.8026731 4.56835752,16.7116731 4.63435752,16.6696731 C4.85135752,16.6936731 5.05035752,17.2426731 4.37435752,17.2426731 C3.45735752,17.2426731 1.82135752,15.7396731 1.48335752,14.6776731 C1.11535752,15.5046731 0.698357519,16.3856731 0.451357519,16.9406731 C0.300357519,17.2846731 0.445357519,17.4956731 0.415357519,17.5386731 C0.0713575188,17.5626731 -0.109642481,17.3636731 0.0713575188,16.9716731 C0.518357519,16.0056731 1.86435752,13.2056731 1.91835752,12.0406731 C1.96635752,11.9316731 2.06935752,11.8656731 2.19035752,11.8536731 C2.28135752,11.8536731 2.42535752,12.1976731 2.26835752,12.8016731 C2.20235752,13.0486731 1.97235752,13.5866731 1.69535752,14.2196731 C2.66135752,13.9056731 4.38135752,13.1156731 4.88835752,12.7586731 C5.07535752,12.7526731 5.20235752,12.8496731 5.20235752,12.9336731 L5.20235752,12.9346731 Z" id="Path"></path>
            <path d="M6.42235752,14.1356731 C6.48835752,14.1356731 6.54935752,14.2266731 6.58535752,14.3526731 C6.91735752,14.3586731 7.50835752,14.6546731 7.72035752,14.8176731 C7.98035752,15.0046731 8.19135752,15.3006731 8.13635752,15.5536731 C8.07635752,15.8066731 7.09835752,16.8146731 6.66935752,17.1526731 C6.39135752,17.3636731 6.08435752,17.4306731 5.82435752,17.3576731 C5.23935752,17.1886731 5.28135752,16.5606731 5.35935752,16.1986731 C5.44335752,15.7516731 5.88435752,15.1786731 5.88435752,14.3516731 C5.87235752,14.1766731 6.27035752,14.1346731 6.42135752,14.1346731 L6.42235752,14.1356731 Z M6.52435752,14.8536731 C6.28935752,15.2336731 5.53435752,16.2536731 5.81235752,16.9536731 C5.92135752,17.2316731 6.28335752,16.9896731 6.56635752,16.7666731 C6.72935752,16.6336731 7.34535752,16.0906731 7.57435752,15.6076731 C7.69535752,15.3476731 7.59835752,15.0166731 7.24235752,14.8836731 C7.08535752,14.9016731 6.74135752,14.9376731 6.52435752,14.8536731 L6.52435752,14.8536731 L6.52435752,14.8536731 Z M6.77835752,13.3876731 C6.67535752,13.4966731 6.60335752,13.3636731 6.50635752,13.2606731 C6.57235752,12.8016731 6.78435752,12.2886731 6.75935752,11.8246731 C6.79535752,11.7336731 6.92235752,11.5956731 7.05535752,11.5956731 C7.18835752,11.5956731 7.24835752,11.8426731 7.28435752,12.1206731 C6.98835752,12.6756731 6.95835752,13.0496731 6.77735752,13.3876731 L6.77735752,13.3876731 L6.77835752,13.3876731 Z M7.96135752,13.1396731 C7.85835752,13.2486731 7.72635752,13.2056731 7.64735752,13.1576731 C7.79235752,12.6326731 7.87635752,12.5476731 7.93735752,12.0166731 C8.02135752,11.8416731 8.13035752,11.6186731 8.22735752,11.6186731 C8.36035752,11.6186731 8.54735752,11.7936731 8.58335752,12.0776731 C8.30535752,12.4456731 8.14235752,12.8016731 7.96135752,13.1396731 L7.96135752,13.1396731 L7.96135752,13.1396731 Z" id="Shape"></path>
            <path d="M10.1643575,14.1536731 C10.2063575,14.1596731 10.2553575,14.3706731 10.2423575,14.4496731 C10.2293575,14.5286731 10.2183575,14.4496731 10.1513575,14.5276731 C9.94035752,15.0166731 9.30635752,16.4956731 9.41535752,16.6766731 C9.79535752,16.2786731 10.6583575,14.9686731 11.5943575,14.3526731 C11.6853575,14.3046731 11.7813575,14.2746731 11.8843575,14.2616731 C12.2043575,14.1956731 12.3003575,14.6176731 12.0773575,15.1246731 C12.0533575,15.1846731 11.9503575,15.2086731 11.9863575,15.2876731 C11.9083575,15.6316731 11.6423575,16.2356731 11.6543575,16.6816731 C11.6603575,16.8746731 11.7323575,16.9536731 11.9073575,16.8746731 C12.5593575,16.5846731 13.5793575,15.6556731 14.1283575,15.0396731 C14.1763575,15.0576731 14.2613575,15.1846731 14.2063575,15.2506731 C13.5663575,16.0356731 12.5403575,16.9406731 11.9433575,17.2306731 C11.4423575,17.4656731 11.1463575,17.2666731 11.1343575,16.9166731 C11.1283575,16.7956731 11.1943575,16.8386731 11.1823575,16.7536731 C11.0913575,16.3976731 11.5683575,15.4806731 11.6833575,14.8346731 C11.7013575,14.7136731 11.6173575,14.7506731 11.4963575,14.8286731 C10.6093575,15.3836731 9.98135752,16.5126731 9.49235752,17.3036731 C9.44435752,17.3876731 9.02135752,17.4366731 8.99135752,17.2436731 C8.88835752,17.1956731 8.86435752,16.8576731 8.91335752,16.6276731 C9.07635752,15.9156731 9.45635752,14.8346731 9.80635752,14.1776731 C9.92135752,14.1476731 10.0413575,14.1416731 10.1623575,14.1536731 L10.1643575,14.1536731 Z" id="Path"></path>
            <path d="M14.3043575,14.1716731 C14.3523575,14.2316731 14.2803575,14.2986731 14.3283575,14.3346731 C14.4493575,14.4186731 14.4913575,14.5636731 14.4733575,14.7636731 C14.4913575,15.1256731 13.9723575,16.0126731 13.7973575,16.6826731 C13.7133575,16.9966731 13.7553575,17.1896731 13.9903575,17.1296731 C14.7503575,16.7736731 15.8673575,15.8686731 16.4403575,15.2346731 C16.5493575,15.1986731 16.6033575,15.3256731 16.4763575,15.4886731 C15.9693575,16.1166731 14.2853575,17.4746731 13.9233575,17.4806731 C13.6213575,17.6256731 13.3133575,17.3776731 13.3803575,17.0826731 C13.2473575,16.5816731 14.1773575,14.6686731 13.9533575,14.2216731 C14.0803575,14.1066731 14.2493575,14.1126731 14.3033575,14.1736731 L14.3043575,14.1716731 Z M14.5573575,12.2886731 C14.5633575,12.1256731 15.0463575,12.0716731 15.1303575,12.0596731 C15.1903575,12.1196731 15.2513575,12.1806731 15.2513575,12.2346731 C15.2513575,12.2886731 15.2033575,12.6566731 15.0883575,12.6756731 C14.8533575,12.7176731 14.5453575,12.5126731 14.5573575,12.2896731 L14.5573575,12.2896731 L14.5573575,12.2886731 Z" id="Shape"></path>
            <path d="M22.4463575,14.4076731 C22.4463575,14.4916731 22.2533575,14.5526731 22.1923575,14.5526731 C22.1313575,14.5526731 22.0473575,14.4866731 21.9993575,14.4866731 C21.7273575,14.4866731 21.5953575,14.7646731 21.5953575,14.9756731 C21.5953575,15.3736731 22.1623575,16.3456731 22.1623575,16.9616731 C22.1623575,17.2636731 21.7583575,17.4206731 21.4623575,17.4746731 C21.4203575,17.4806731 21.3783575,17.4326731 21.3413575,17.4386731 C21.3043575,17.4446731 21.2813575,17.4806731 21.2323575,17.4806731 C20.9853575,17.4806731 20.3513575,17.2936731 20.0433575,16.9796731 C19.8923575,16.8286731 19.6873575,16.5636731 19.9343575,16.4066731 C20.1883575,16.7446731 20.7013575,17.1066731 21.2073575,17.1066731 C21.4123575,17.1066731 21.6543575,17.0036731 21.6543575,16.8956731 C21.6543575,16.4976731 21.3163575,15.6886731 21.1713575,15.1456731 C20.6283575,15.5496731 19.7833575,15.9306731 18.9083575,16.3646731 C18.7813575,17.6926731 17.5923575,20.5656731 16.8863575,21.1026731 C16.8023575,21.1626731 16.8803575,21.1386731 16.7833575,21.2236731 C16.6503575,21.3506731 16.3973575,21.3986731 16.2523575,21.3986731 C15.7933575,21.3986731 15.2323575,21.0786731 15.2323575,19.8956731 C15.2323575,18.0726731 16.8373575,17.0706731 18.4793575,16.2566731 C18.4553575,15.6406731 18.2683575,15.1156731 18.0383575,15.4176731 C17.6163575,15.9606731 17.0723575,16.4736731 16.9463575,16.5586731 C16.8623575,16.9386731 16.3913575,17.2826731 16.2223575,17.2826731 C15.9323575,17.2826731 15.8663575,16.9206731 16.0113575,16.4796731 C16.2643575,15.1756731 17.4663575,13.2506731 17.9303575,13.5886731 C18.4133575,13.4856731 18.5153575,13.8056731 18.5153575,14.0176731 C18.5153575,14.3136731 18.3943575,14.6516731 17.9243575,14.6576731 C17.9603575,14.5796731 18.0573575,14.0296731 18.0083575,14.0476731 C17.2233575,14.3916731 16.6803575,15.6346731 16.4213575,16.3536731 C16.3613575,16.5226731 16.3793575,16.8006731 16.5963575,16.4806731 C17.0973575,16.1186731 17.9963575,14.7426731 18.1413575,14.7426731 C18.7143575,14.7426731 18.9013575,15.3096731 18.9203575,16.0286731 C19.7413575,15.6306731 20.5383575,15.2616731 21.1053575,14.8336731 C21.1053575,14.7916731 21.1053575,14.7496731 21.1113575,14.7066731 C21.1173575,14.6636731 21.1593575,14.6036731 21.1593575,14.5856731 C21.1593575,14.5676731 21.1233575,14.5196731 21.1353575,14.4766731 C21.1773575,14.2596731 21.3703575,13.7096731 21.6483575,13.7096731 C21.8833575,13.7156731 22.4453575,14.3316731 22.4453575,14.4096731 L22.4463575,14.4076731 Z M18.4753575,16.5926731 C16.9723575,17.3526731 15.5243575,18.3246731 15.5243575,19.9186731 C15.5243575,20.5096731 15.7713575,20.8726731 16.0133575,21.0226731 C16.1103575,21.0466731 16.2063575,21.0586731 16.3033575,21.0586731 C17.1783575,21.0586731 18.3673575,17.8776731 18.4763575,16.5926731 L18.4753575,16.5926731 Z" id="Shape"></path>
            <path d="M23.9913575,14.9986731 C23.9673575,14.7456731 24.1183575,14.0446731 24.4073575,14.0446731 C24.4553575,14.0446731 24.6123575,14.1716731 24.6973575,14.4186731 C24.7453575,14.4426731 24.7753575,14.4606731 24.7153575,14.6056731 C24.6553575,14.7506731 24.4373575,15.0946731 24.4193575,15.4566731 C24.4193575,15.5166731 24.3533575,15.4386731 24.3413575,15.5046731 C24.2143575,15.9336731 24.1423575,16.3676731 24.1243575,16.8146731 C24.1183575,16.9416731 24.1903575,16.8986731 24.2453575,16.8386731 C24.7523575,16.2106731 25.1743575,15.5106731 25.4943575,14.7686731 C25.4763575,14.6176731 25.5723575,14.5576731 25.6573575,14.5576731 C25.7423575,14.5576731 25.8923575,14.6486731 25.9103575,14.7686731 C25.9583575,14.8046731 26.0433575,14.8716731 26.0373575,14.8896731 C25.9953575,14.9676731 25.9713575,15.0526731 25.9773575,15.1436731 C26.0253575,15.5476731 26.1943575,16.3686731 26.5323575,16.6646731 C26.6413575,16.7676731 26.7073575,16.8156731 26.8043575,16.6286731 C27.1783575,15.8746731 27.0943575,14.9446731 27.0573575,14.2026731 C27.0633575,14.1366731 27.1173575,14.0816731 27.1843575,14.0756731 C27.2623575,14.0756731 27.4743575,14.1416731 27.4803575,14.3356731 C27.4983575,15.0296731 27.4383575,16.2306731 27.0763575,16.9186731 C26.9313575,17.0026731 26.9073575,17.1786731 26.6963575,17.1296731 C26.2493575,17.0206731 25.8513575,16.2366731 25.7003575,15.5306731 C25.6643575,15.3616731 25.6093575,15.4036731 25.5493575,15.4946731 C25.2713575,15.9356731 24.6683575,16.9736731 24.3663575,17.4196731 C24.3183575,17.4976731 24.1913575,17.3716731 24.1133575,17.3836731 C23.9203575,17.5106731 23.8233575,17.3056731 23.8113575,17.1966731 C23.7273575,16.7256731 23.8533575,15.7846731 24.1013575,15.1266731 C24.0533575,15.0906731 23.9983575,15.0846731 23.9923575,14.9996731 L23.9913575,14.9986731 Z" id="Path"></path>
            <path d="M29.2303575,14.1716731 C29.2783575,14.2316731 29.2063575,14.2986731 29.2543575,14.3346731 C29.3753575,14.4186731 29.4173575,14.5636731 29.3993575,14.7636731 C29.4173575,15.1256731 28.8983575,16.0126731 28.7233575,16.6826731 C28.6393575,16.9966731 28.6813575,17.1896731 28.9163575,17.1296731 C29.6763575,16.7736731 30.7933575,15.8686731 31.3663575,15.2346731 C31.4753575,15.1986731 31.5293575,15.3256731 31.4023575,15.4886731 C30.8953575,16.1166731 29.2173575,17.4746731 28.8493575,17.4806731 C28.5473575,17.6256731 28.2393575,17.3776731 28.3063575,17.0826731 C28.1733575,16.5816731 29.1033575,14.6686731 28.8793575,14.2216731 C29.0063575,14.1066731 29.1813575,14.1126731 29.2293575,14.1736731 L29.2303575,14.1716731 Z M29.4833575,12.2886731 C29.4893575,12.1256731 29.9723575,12.0716731 30.0563575,12.0596731 C30.1163575,12.1196731 30.1773575,12.1806731 30.1773575,12.2346731 C30.1773575,12.2886731 30.1293575,12.6566731 30.0143575,12.6756731 C29.7793575,12.7176731 29.4773575,12.5126731 29.4833575,12.2896731 L29.4833575,12.2896731 L29.4833575,12.2886731 Z" id="Shape"></path>
            <path d="M33.7933575,17.3826731 C34.0473575,17.3766731 34.3423575,17.3166731 34.7473575,17.0206731 C34.8563575,17.0566731 34.8563575,17.1416731 34.8253575,17.1716731 C34.4393575,17.4916731 34.0583575,17.7206731 33.6903575,17.7266731 C33.5993575,17.7266731 33.2313575,17.5996731 33.1353575,17.3226731 C32.8753575,16.9486731 33.0753575,15.7776731 33.1713575,15.2886731 C32.7973575,15.6626731 32.4473575,15.9886731 32.1153575,16.5926731 C32.0673575,16.9306731 31.9703575,16.8456731 31.8553575,16.9546731 C31.8193575,16.9906731 31.4513575,17.1416731 31.4393575,17.1416731 C31.3733575,17.1416731 31.2283575,17.0756731 31.1923575,16.9726731 C31.1743575,16.9126731 31.0893575,16.7556731 31.1083575,16.6406731 C31.3013575,15.5486731 31.4823575,15.0536731 31.7783575,14.2506731 C31.8323575,14.1906731 31.9053575,14.1476731 31.9893575,14.1476731 C32.0673575,14.1476731 32.3213575,14.2386731 32.3093575,14.3646731 C32.2853575,14.6606731 32.1583575,15.0646731 31.9113575,15.3126731 C31.7663575,15.6746731 31.7003575,15.9946731 31.6153575,16.3686731 C31.5913575,16.4956731 31.6993575,16.5376731 31.7483575,16.4776731 C32.4003575,15.6986731 33.4023575,14.4256731 33.5103575,14.4256731 C33.6183575,14.4256731 33.7573575,14.4676731 33.8063575,14.5286731 C33.8973575,14.6496731 33.8423575,14.9876731 33.7403575,15.1566731 C33.4743575,15.7356731 33.2633575,17.3176731 33.7943575,17.3836731 L33.7933575,17.3826731 Z" id="Path"></path>
            <path d="M37.8913575,12.2046731 C37.6443575,12.6696731 36.9683575,13.4786731 36.6483575,13.7316731 C36.2503575,14.3416731 35.7973575,15.7356731 35.7063575,16.1336731 C35.6153575,16.5316731 35.6703575,16.7676731 35.7903575,16.7856731 C36.4243575,16.2366731 37.1363575,15.0056731 38.5603575,14.0936731 C38.7773575,14.1116731 38.9893575,14.2806731 39.0193575,14.3896731 C39.0553575,14.5106731 39.0013575,14.6426731 38.8923575,14.7096731 C38.4393575,15.3916731 37.5763575,15.9526731 37.5763575,16.2726731 C37.5763575,16.4176731 37.9743575,17.1656731 38.6503575,17.1236731 C39.3863575,17.0026731 40.1533575,16.1876731 40.1953575,16.0736731 C40.2613575,15.7836731 40.4913575,16.0136731 40.3463575,16.2246731 C40.0023575,16.7376731 39.1873575,17.3716731 38.5533575,17.4436731 C37.9193575,17.5156731 37.0083575,16.7436731 36.8633575,15.9826731 C36.5253575,16.4116731 36.3083575,16.7916731 36.0123575,17.1476731 C35.8373575,17.3586731 35.4873575,17.3166731 35.3363575,17.1836731 C35.3363575,17.0326731 35.2883575,17.0326731 35.2763575,16.9546731 C35.2163575,15.8626731 36.3083575,13.4656731 37.4553575,11.5826731 C37.8473575,11.4736731 38.0463575,11.8966731 37.8903575,12.2046731 L37.8913575,12.2046731 Z M37.0943575,15.6926731 C37.1723575,15.7286731 37.2213575,15.8196731 37.3483575,15.7346731 C37.4933575,15.6436731 38.0303575,15.0826731 38.1573575,14.8656731 C38.2173575,14.7626731 38.1753575,14.6966731 38.0483575,14.7996731 C37.7103575,15.0716731 37.3903575,15.3666731 37.0943575,15.6926731 L37.0943575,15.6926731 Z" id="Shape"></path>
            <path d="M40.9633575,17.1116731 C41.9773575,17.0456731 43.6913575,15.6506731 44.0113575,15.1686731 C44.0353575,15.1326731 44.0893575,15.1146731 44.1323575,15.1266731 C44.1803575,15.1446731 44.2533575,15.2106731 44.2353575,15.2716731 C44.2173575,15.3326731 44.0603575,15.4646731 43.9573575,15.5856731 C43.5413575,16.1586731 41.8933575,17.3596731 41.2533575,17.4206731 C41.1503575,17.4446731 41.0423575,17.4566731 40.9333575,17.4626731 C40.4263575,17.4626731 40.2633575,16.9376731 40.2633575,16.3706731 C40.2633575,15.0546731 40.8303575,14.6206731 41.1323575,14.1076731 C41.2413575,14.0896731 41.4703575,14.0836731 41.5543575,14.1916731 C41.8083575,14.2276731 42.1643575,14.7226731 42.2243575,14.8256731 C42.2843575,14.9286731 42.5803575,15.0546731 42.5803575,15.2416731 C42.5803575,15.3686731 42.3453575,15.4346731 42.2603575,15.4586731 C42.1753575,15.4826731 41.9583575,15.3746731 41.8013575,15.3986731 C41.4873575,15.3986731 41.0343575,15.3926731 40.7693575,15.3746731 C40.6783575,15.6406731 40.6303575,15.9176731 40.6243575,16.2016731 C40.6243575,16.5936731 40.7273575,17.1306731 40.9623575,17.1126731 L40.9633575,17.1116731 Z M42.0553575,15.1436731 C41.8863575,14.9806731 41.6813575,14.4676731 41.4453575,14.4676731 C41.3183575,14.4676731 41.0833575,14.7146731 40.8963575,15.0836731 C41.2943575,15.0776731 41.8013575,15.2046731 41.8863575,15.1866731 C41.9833575,15.1686731 42.0973575,15.1746731 42.0553575,15.1446731 L42.0553575,15.1436731 Z" id="Shape"></path>
            <path d="M44.4393575,15.1916731 C44.3123575,15.6986731 44.2283575,16.1876731 44.2283575,16.5616731 C44.2283575,17.0086731 44.3613575,17.3406731 44.8193575,17.2016731 C45.1393575,17.1106731 45.3863575,16.8876731 45.5613575,16.7006731 C45.6033575,16.7006731 45.6523575,16.7366731 45.6453575,16.8216731 C45.6213575,17.0566731 45.0783575,17.5756731 44.5533575,17.5756731 C44.1123575,17.5756731 43.8293575,17.1896731 43.8533575,16.5676731 C43.8533575,16.4836731 43.8893575,16.5316731 43.8893575,16.5016731 C43.8893575,16.4716731 43.8413575,16.4236731 43.8473575,16.3806731 C44.0523575,14.9196731 44.8553575,12.4096731 45.5013575,11.3956731 C45.5433575,11.1056731 45.7123575,11.0636731 45.8033575,11.0636731 C45.8943575,11.0636731 46.0633575,11.3836731 46.0633575,11.6976731 C46.0633575,11.8486731 46.0213575,12.3796731 45.8033575,12.8146731 C45.6463575,13.4126731 45.0853575,14.3176731 44.4393575,15.1926731 L44.4393575,15.1916731 Z M44.6083575,14.5706731 C45.0243575,13.8766731 45.4713575,12.9596731 45.6703575,12.0896731 C45.6943575,11.9806731 45.6463575,11.9686731 45.5373575,12.1556731 C45.3563575,12.4456731 44.9273575,13.4956731 44.6083575,14.5696731 L44.6083575,14.5706731 Z" id="Shape"></path>
            <polygon id="Path" points="13.7253575 9.63367312 13.7253575 7.00267312 15.5903575 7.00267312 15.5903575 7.49767312 14.2863575 7.49767312 14.2863575 8.05267312 15.5603575 8.05267312 15.5603575 8.54767312 14.2863575 8.54767312 14.2863575 9.63367312 13.7253575 9.63367312"></polygon>
            <polygon id="Path" points="18.6563575 9.63367312 18.6563575 7.00267312 20.5213575 7.00267312 20.5213575 7.49767312 19.2173575 7.49767312 19.2173575 8.05267312 20.4903575 8.05267312 20.4903575 8.54767312 19.2173575 8.54767312 19.2173575 9.14567312 20.5213575 9.14567312 20.5213575 9.64067312 18.6563575 9.64067312"></polygon>
            <polygon id="Path" points="25.6453575 9.63367312 25.1863575 7.82867312 24.7273575 9.63367312 24.1293575 9.63367312 23.3753575 7.00267312 24.0033575 7.00267312 24.4623575 8.90367312 24.9633575 7.00267312 25.3983575 7.00267312 25.8933575 8.90367312 26.3523575 7.00267312 26.9863575 7.00267312 26.2383575 9.63367312 25.6473575 9.63367312"></polygon>
            <path d="M29.7313575,8.32367312 C29.7313575,7.53267312 30.3103575,6.96567312 31.1013575,6.96567312 C31.8923575,6.96567312 32.4773575,7.53267312 32.4773575,8.32367312 C32.4773575,9.11467312 31.8983575,9.68767312 31.1013575,9.68767312 C30.3043575,9.68167312 29.7313575,9.11467312 29.7313575,8.32367312 L29.7313575,8.32367312 Z M31.9043575,8.32367312 C31.9043575,7.82867312 31.5903575,7.46067312 31.1013575,7.46067312 C30.6183575,7.46067312 30.3043575,7.82867312 30.3043575,8.32367312 C30.3043575,8.81867312 30.6183575,9.18667312 31.1013575,9.18667312 C31.5843575,9.18667312 31.9043575,8.81267312 31.9043575,8.32367312 L31.9043575,8.32367312 Z" id="Shape"></path>
            <path d="M8.38335752,4.21967312 C4.73835752,-1.53232688 -3.95364248,4.72067312 9.51835752,9.80267312 C9.87435752,10.5566731 11.0813575,10.2676731 10.4353575,9.47667312 C9.25235752,8.02767312 13.1753575,5.10667312 14.0323575,3.65267312 C15.5173575,1.14767312 10.8943575,-3.40932688 8.38335752,4.21967312 L8.38335752,4.21967312 Z M13.2003575,3.90567312 C12.3853575,5.75867312 9.17435752,7.82867312 9.39235752,9.42767312 C-1.42364248,5.24467312 4.95635752,-0.247326884 8.13135752,4.72567312 L8.13135752,4.72567312 C7.41935752,6.75967312 8.93435752,6.76567312 9.00035752,6.11367312 C9.09735752,4.28467312 9.57935752,3.17467312 10.1173575,2.48667312 C11.8493575,0.277673116 13.8833575,2.34767312 13.2013575,3.90467312 L13.2003575,3.90567312 Z" id="Shape"></path>
        </g>
    </g>
</svg>